# xmcd
#
# Track frame offsets: 
#        150
#        10204
#        28176
#        38453
#        53153
#        64647
#        83837
#        94054
#        106509
#        118566
#        134921
#        146201
#        154298
#        165268
#        177201
#
# Disc length: 2520 seconds
#
# Revision: 0
# Processed by: cddbd v1.5.2PL0 Copyright (c) Steve Scherf et al.
# Submitted via: ExactAudioCopy v0.99pb4
#
DISCID=be09d60f
DTITLE=Phil Upchurch - You Can't Sit Down!
DYEAR=1961
DGENRE=R&B
TTITLE0=You Can't Sit Down (Part One)
TTITLE1=Oop Poop Adoo
TTITLE2=Honest Injun
TTITLE3=Pink Lollipop
TTITLE4=Pogo
TTITLE5=Cha Cha Cha Blues
TTITLE6=You Can't Sit Down (Part Two)
TTITLE7=Straw Hat
TTITLE8=Running Bear
TTITLE9=Nothing But The Soul
TTITLE10=Evad
TTITLE11=Organ Boogie
TTITLE12=Cha Cha Maracas
TTITLE13=The Hog
TTITLE14=That's Where It Is
EXTD=
EXTT0=
EXTT1=
EXTT2=
EXTT3=
EXTT4=
EXTT5=
EXTT6=
EXTT7=
EXTT8=
EXTT9=
EXTT10=
EXTT11=
EXTT12=
EXTT13=
EXTT14=
PLAYORDER=
